<svg width="165" height="105" viewBox="0 0 165 105" fill="none" xmlns="http://www.w3.org/2000/svg">
<g id="Group 3">
<path id="Vector" d="M155.753 65.4812C150.599 65.4812 146.635 61.4591 146.635 56.3447C146.635 51.1804 150.599 47.208 155.753 47.208C160.858 47.208 164.873 51.1804 164.873 56.3447C164.873 61.4591 160.858 65.4812 155.753 65.4812ZM148.121 56.3447C148.121 60.615 151.443 63.9915 155.753 63.9915C160.016 63.9915 163.336 60.615 163.336 56.3447C163.336 52.0246 160.016 48.6977 155.753 48.6977C151.443 48.6977 148.121 52.0246 148.121 56.3447ZM151.293 61.4095V60.2674H152.781V52.3226H151.293V51.1804H155.704C158.231 51.1804 159.52 52.3226 159.52 53.8122C159.52 54.9542 158.628 55.6991 157.34 55.997V56.1956C158.33 56.3447 158.826 57.2384 158.826 57.9335V59.324C158.826 60.2177 158.976 60.466 159.421 60.466C159.867 60.466 160.164 60.0191 160.164 59.1751V57.3378H161.156V59.1751C161.156 60.7639 160.164 61.6578 159.024 61.6578C157.686 61.6578 156.844 60.9625 156.844 59.2743V58.4798C156.844 57.0398 156.546 56.5929 154.961 56.5929H154.514V60.2674H155.951V61.4095H151.293ZM154.514 55.4508H156.002C157.142 55.4508 157.488 54.855 157.488 53.8122C157.488 52.8688 156.943 52.3226 155.704 52.3226H154.514V55.4508Z" fill="#FA3812"/>
<path id="Vector_2" d="M80.5267 103.926C79.0134 103.868 77.4975 103.838 75.9868 103.737C75.2852 103.688 74.5941 103.48 73.8925 103.378C73.1049 103.263 72.6148 102.808 72.2934 102.118C71.3775 100.146 69.9285 98.5882 68.4205 97.0551C66.8992 95.5111 65.0592 94.4248 63.329 93.1725C62.18 92.3404 61.0257 91.4948 59.9731 90.5449C58.5187 89.2337 57.7206 87.5881 57.8625 85.5651C57.9269 84.6795 57.7903 83.7537 57.9911 82.9055C58.7437 79.7506 57.4555 76.9652 56.5126 74.1155C56.3734 73.69 55.9422 73.3502 55.4547 73.5134C54.0245 73.995 52.6023 74.5061 51.2042 75.0733C50.4677 75.3704 49.7525 75.753 49.2811 76.4594C48.6946 77.3398 47.733 77.677 46.7903 77.8963C43.8227 78.5893 40.8444 78.9399 37.8312 78.0301C34.5316 77.0347 34.9707 77.7839 33.5914 79.7453C33.3879 80.0343 33.262 80.3768 33.0986 80.6925C31.9059 82.9973 31.9791 85.2494 33.3182 87.4489C33.878 88.3587 34.494 89.2363 35.1529 90.0766C36.7973 92.1744 38.5222 94.2133 40.1266 96.3406C40.7158 97.122 41.3935 97.5501 42.3282 97.6651C42.8558 97.7294 43.3834 97.8846 43.9111 97.8764C45.9412 97.8417 46.9991 99.0887 47.642 100.761C47.9821 101.644 48.2124 102.615 47.7277 103.584C47.5135 104.015 47.2376 104.285 46.7609 104.392C43.6861 105.096 40.5658 104.978 37.4509 104.917C36.2671 104.893 35.3887 104.277 34.8475 103.295C34.2342 102.179 33.3637 101.387 32.4344 100.536C31.0765 99.2947 29.8069 97.8872 28.9177 96.2176C28.0767 94.6388 27.0242 93.2099 25.9313 91.7971C25.1037 90.7268 24.2039 89.7876 23.0844 89.0142C22.3611 88.5139 21.6916 87.8824 21.1532 87.1894C20.5453 86.4107 20.3737 85.5492 20.6148 84.4547C21.4398 80.73 22.4094 77.0374 23.1808 73.2966C23.8048 70.2729 25.1198 67.3885 26.1483 64.4505C26.3625 63.8404 26.7965 63.4283 27.4152 63.158C28.2267 62.8048 28.9927 62.342 29.7908 61.9539C32.0728 60.8408 33.9209 59.1417 35.6351 57.3489C36.8617 56.0672 37.542 54.3654 38.0455 52.6475C38.1795 52.1953 38.0026 51.7725 37.6062 51.4755C37.3224 51.2614 37.0411 51.0421 36.7465 50.8414C33.7628 48.8291 31.347 46.2122 28.9579 43.5605C27.6375 42.0941 26.5607 40.4752 25.5912 38.7681C23.6119 35.2761 21.4077 31.9422 18.673 28.9746C17.2402 27.42 15.6331 26.3337 13.4878 25.9456C12.0897 25.6915 10.8202 25.8547 9.58012 26.3551C8.32934 26.8581 7.63563 27.7974 7.63296 29.253C7.63296 30.4411 7.89275 31.5461 8.26772 32.6432C8.55431 33.4833 8.85695 34.321 9.19978 35.137C9.77294 36.507 9.41138 37.7352 8.70966 38.9286C7.43477 41.0907 4.98943 40.89 3.48153 39.4183C1.68168 37.6577 1.00406 35.3591 0.594271 32.9589C0.473745 32.2579 0.479127 31.5327 0.318426 30.8451C-0.696666 26.4916 0.765693 22.9703 3.98506 20.0884C5.53582 18.6996 7.43475 17.8889 9.44084 17.3698C10.0381 17.2146 10.6943 17.0673 11.2889 17.1503C13.8387 17.5036 16.4207 17.6988 18.8579 18.6541C19.9507 19.0822 20.9523 19.6121 21.8228 20.4094C22.5433 21.0704 23.3119 21.6831 24.07 22.3013C25.527 23.4867 26.7831 24.8299 27.8545 26.3952C29.6623 29.0389 31.5237 31.6585 33.5432 34.1417C36.4599 37.7299 40.0971 40.1462 44.9235 40.2827C47.1867 40.3469 49.3508 39.7876 51.464 39.0893C53.4968 38.4149 55.5244 37.7646 57.6269 37.3365C61.5721 36.5339 65.4904 36.2422 69.5347 36.7854C72.6497 37.2055 75.6522 37.9039 78.617 38.8484C79.3696 39.0891 80.0821 39.4611 80.816 39.7636C81.223 39.9294 81.6302 40.1809 82.0506 40.2104C83.2399 40.2986 84.3165 40.6894 85.3075 41.3047C85.9798 41.7249 86.6172 41.6526 87.3484 41.4974C88.9955 41.1495 90.5946 40.4752 92.3328 40.6947C95.8468 39.7261 99.3661 38.7681 102.875 37.7754C103.568 37.58 104.128 37.1439 104.546 36.5178C104.886 36.004 105.307 35.5411 105.722 35.0836C105.826 34.9685 106.038 34.9498 106.201 34.8882C106.287 35.1183 106.515 35.4207 106.44 35.5651C105.979 36.4375 106.525 37.374 106.292 38.166C106.054 38.9714 105.307 39.6137 104.854 40.371C103.884 41.9925 103.413 43.812 102.912 45.6101C102.797 46.0249 102.845 46.4932 102.861 46.9346C102.867 47.0898 102.998 47.2397 103.073 47.3949C103.159 47.245 103.303 47.1059 103.325 46.9454C103.764 43.9056 105.526 41.5536 107.377 39.2712C107.939 38.5755 108.234 38.0671 107.806 37.1599C107.192 35.8623 107.38 34.5002 108.247 33.3683C109.147 32.1937 109.024 30.6846 109.729 29.4482C109.954 29.0523 109.774 28.3994 109.71 27.8722C109.568 26.7029 109.169 26.3872 107.969 26.3123C106.057 26.1892 104.324 26.5371 102.62 27.5538C99.9928 29.1192 98.5117 28.6536 97.2797 25.9216C96.4628 24.1074 95.3781 22.5073 94.1567 20.9821C93.3157 19.9305 93.0479 18.7612 93.2648 17.4795C93.3157 17.1852 93.6078 16.749 93.8514 16.7008C94.8371 16.5054 95.2683 15.66 95.9245 15.09C96.1976 14.8518 96.361 14.4638 96.0985 14.1374C95.895 13.8805 95.5789 13.6986 95.2817 13.5353C95.1396 13.4577 94.9308 13.5086 94.754 13.4845C93.6291 13.332 92.8497 13.6156 92.6676 14.908C92.6007 15.3843 91.8747 15.4807 91.6525 15.0712C91.4061 14.6137 91.1758 14.1187 91.09 13.6156C90.9749 12.9172 91.2963 12.374 91.9605 12.1305C96.9314 10.3137 101.209 7.17228 105.936 4.8925C106.335 4.69984 106.694 4.42958 107.066 4.18609C108.979 2.9231 111.073 2.21937 113.368 2.33709C114.742 2.40666 115.728 1.96784 116.599 0.884142C117.461 -0.188852 118.002 -0.196873 119.162 0.389126C119.32 0.4694 119.47 0.568403 119.625 0.654028C120.552 1.17046 121.436 1.97586 122.416 2.12036C123.402 2.26485 124.481 1.72703 125.531 1.53704C126.131 1.43001 126.757 1.32833 127.355 1.39255C128.115 1.4755 128.611 2.1284 128.627 2.87762C128.635 3.23082 128.608 3.58939 128.547 3.93991C128.306 5.3019 128.884 6.38292 129.749 7.33282C130.531 8.18908 131.405 8.95704 132.192 9.80794C134.064 11.8335 135.955 13.8457 137.741 15.9462C138.663 17.03 139.198 18.325 139.402 19.8047C139.67 21.7447 139.68 23.7088 139.951 25.6273C140.517 29.6277 140.098 33.6306 140.307 37.6229C140.395 39.3381 140.158 41.0157 139.823 42.648C139.506 44.1946 138.805 45.669 138.197 47.1434C137.886 47.8952 137.597 48.6231 137.61 49.4472C137.664 52.8321 137.682 56.2169 137.782 59.6018C137.814 60.6669 138.135 61.7024 138.697 62.6363C140.307 65.2987 141.36 68.2608 143.197 70.8081C143.703 71.5119 143.977 72.4029 144.271 73.2378C144.868 74.9262 145.675 76.4942 146.631 78.0115C147.337 79.1326 147.868 80.3662 148.49 81.5434C149.24 82.9589 149.901 84.4333 150.779 85.7631C152.44 88.2704 152.545 90.9463 151.838 93.713C151.487 95.0857 150.916 96.3995 150.448 97.7428C150.215 98.4143 150.142 99.0406 150.317 99.8004C150.755 101.695 149.748 103.062 148.273 104.092C147.287 104.78 145.299 104.36 144.344 103.343C143.516 102.463 143.119 101.371 143.017 100.202C142.943 99.3188 142.991 98.4198 143.063 97.534C143.171 96.2095 143.361 94.8903 143.489 93.5658C143.604 92.3991 143.577 91.2512 142.862 90.229C142.713 90.015 142.558 89.7314 142.57 89.4906C142.669 87.7566 141.475 86.9807 140.219 86.2367C139.758 85.9638 139.335 85.6161 138.848 85.4072C135.813 84.0988 133.033 82.3168 130.143 80.7407C127.256 79.1673 124.243 77.7786 121.746 75.5738C120.616 74.5756 119.523 73.5401 118.401 72.5313C118.123 72.2798 117.772 72.154 117.429 72.3761C115.776 73.4438 114.167 74.5436 113.36 76.4728C112.814 77.7839 112.198 79.0656 111.579 80.3446C110.433 82.7181 110.248 85.3056 109.943 87.8503C109.785 89.1641 109.846 90.5021 110.259 91.8185C110.602 92.9129 110.703 94.0795 110.953 95.206C111.301 96.7901 111.949 97.3066 113.569 97.0845C114.507 96.9561 115.375 97.0952 116.178 97.4511C117.308 97.9515 118.404 98.5509 119.448 99.2091C120.771 100.041 120.857 101.941 119.555 102.835C118.243 103.737 116.869 104.604 115.128 104.424C114.244 104.333 113.347 104.363 112.458 104.323C110.5 104.234 108.539 104.122 106.624 104.705C105.671 104.997 104.838 104.743 104.23 103.967C102.955 102.345 101.868 100.603 101.64 98.5027C101.538 97.5795 101.311 96.7393 100.737 96.0383C99.9044 95.0161 99.559 93.8201 99.5456 92.5704C99.5242 90.518 99.1973 88.5031 98.9885 86.4723C98.7688 84.3556 98.6805 82.2258 98.5279 80.1012C98.4957 79.657 98.4287 79.2155 98.3805 78.7739C98.3055 78.0863 98.0001 77.6421 97.2555 77.4977C95.7745 77.2087 94.3041 76.8661 92.831 76.5371C89.1884 75.7235 85.5486 74.9048 81.9061 74.094C81.4722 73.9976 81.0329 73.896 80.591 73.8773C78.9626 73.813 77.4278 73.3662 75.9521 72.732C75.2771 72.443 74.6129 72.3039 73.887 72.2931C72.9549 72.2772 72.8801 72.6625 73.0568 73.4438C73.4076 74.9984 73.6166 76.5825 73.871 78.1559C73.9138 78.4155 73.9032 78.6937 73.871 78.956C73.6112 80.8852 73.3192 82.8118 73.0728 84.7437C72.9148 85.9799 72.8801 87.2082 73.2041 88.447C73.5818 89.8973 73.5308 91.4305 74.254 92.8272C75.0147 94.2937 76.169 95.38 77.3635 96.4289C77.7305 96.75 78.3277 96.9133 78.8339 96.9507C80.2669 97.0551 81.6328 97.3708 82.9854 97.8497C83.6363 98.0799 84.3968 97.9782 85.0959 98.1014C86.9868 98.4277 87.9698 99.7924 87.8011 101.751C87.7501 102.332 87.4797 102.768 87.0217 103.084C86.3547 103.544 85.653 103.892 84.7986 103.876C83.371 103.846 81.9435 103.868 80.516 103.868C80.516 103.886 80.516 103.905 80.516 103.921L80.5267 103.926ZM80.3553 47.1247C80.7142 47.1273 80.8963 46.9534 80.8909 46.5895C81.148 46.544 81.4588 46.5707 81.6569 46.4369C82.7631 45.6851 83.9174 45.4897 85.1897 45.95C85.4281 46.0355 85.7174 45.9821 85.9851 45.9982C87.0805 46.0677 87.9725 45.6423 88.3234 44.6174C88.6527 43.6594 89.3679 43.226 90.1366 42.7871C91.323 42.1102 92.6328 41.9121 93.9719 41.8266C94.1272 41.8158 94.2719 41.6714 94.422 41.5884C94.3175 41.4974 94.2291 41.3502 94.1085 41.3235C92.9515 41.0532 91.84 41.1469 90.7285 41.6286C89.6517 42.0969 88.6956 42.6935 87.8386 43.4962C87.4635 43.8468 86.9841 44.2241 86.5074 44.2937C85.3637 44.4569 84.354 45.059 83.1568 45.0883C82.2059 45.1124 81.2338 45.463 80.8642 46.5627C80.516 46.5707 80.3393 46.75 80.3285 47.0979C79.9723 47.1167 79.7928 47.296 79.8197 47.6598C78.9893 48.1495 78.3171 48.7596 78.2153 49.7951C78.0921 49.8781 77.9126 49.9369 77.859 50.0519C77.8081 50.1616 77.8858 50.3329 77.9073 50.4747C77.9929 50.3945 78.1216 50.3276 78.151 50.2313C78.1966 50.0841 78.1724 49.9182 78.1751 49.7602C79.1259 49.359 79.7365 48.7033 79.7847 47.625C80.1651 47.6731 80.3446 47.4938 80.3525 47.122L80.3553 47.1247ZM56.2394 46.552C56.4189 46.3755 56.601 46.1989 56.7805 46.0249C57.0859 45.9686 57.3617 45.8831 57.292 45.4763C57.7045 45.348 58.1438 45.2756 58.5214 45.0804C59.8096 44.4141 61.0418 44.0314 62.5791 44.4516C64.2825 44.917 65.1235 44.3257 65.986 42.6588C66.1493 42.3457 66.1814 41.9443 66.393 41.6794C66.7118 41.2753 67.0814 40.8258 67.5313 40.6278C68.1635 40.3469 68.884 40.197 69.5803 40.1407C70.4642 40.0685 71.3613 40.1542 72.2507 40.1407C72.3845 40.1407 72.5184 39.9722 72.6497 39.8839C72.5024 39.6806 72.3684 39.4665 72.205 39.2765C72.1595 39.2203 72.0391 39.2176 71.9506 39.2096C69.0901 38.8966 66.5886 39.7073 64.8665 42.0192C64.0602 43.103 63.2648 43.5605 62.0086 43.4347C61.8319 43.4159 61.6443 43.4053 61.4756 43.4454C59.933 43.812 58.3071 44.018 57.3402 45.5246C56.9894 45.5458 56.7671 45.6798 56.8314 46.081C56.4644 46.0731 56.2796 46.2417 56.2957 46.6162C56.1485 46.6671 55.7681 46.4851 55.9958 46.9132C56.0761 46.7928 56.1591 46.6751 56.2394 46.5546V46.552ZM49.8194 44.4247C49.9963 44.2482 50.173 44.0689 50.3498 43.8923C52.0103 43.3116 53.6254 42.557 55.4708 42.7416C55.7681 42.7711 56.1457 42.5383 56.4028 42.3243C57.7903 41.1897 59.2552 40.2291 61.0631 39.9C61.181 39.8786 61.3095 39.6351 61.3284 39.4825C61.3363 39.4103 61.0712 39.215 60.9667 39.2364C59.5848 39.536 58.1544 39.7715 57.0162 40.684C55.8645 41.6098 54.5387 42.0192 53.1245 42.2146C52.2166 42.3404 51.413 42.6775 50.7086 43.234C50.5293 43.3759 50.4784 43.6782 50.3685 43.9056C49.9963 43.9164 49.7847 44.0663 49.8704 44.4783C49.6668 44.4595 49.3909 44.3606 49.573 44.7539C49.6561 44.6415 49.7391 44.5317 49.8194 44.4194V44.4247ZM54.67 48.2271C54.611 48.2779 54.5521 48.326 54.4931 48.3769L54.6057 48.1681C54.6781 48.1281 54.761 48.0986 54.8226 48.0478C54.8574 48.0184 54.8601 47.9515 54.8763 47.9033L54.6673 48.2271H54.67ZM108.692 8.55833C109.314 8.55833 109.903 8.61721 110.417 9.05337C111.191 9.7143 112.008 9.57514 112.87 9.16306C113.411 8.90351 114.019 8.78846 114.598 8.60918C115.075 9.39854 115.873 8.96239 116.518 9.10153C117.185 9.24334 117.555 9.82935 117.306 10.4715C117.212 10.715 117.132 11.0228 116.941 11.1592C115.401 12.2617 114.311 14.1348 112.059 14.0384C111.965 14.0357 111.863 14.2311 111.764 14.3353C111.831 14.3916 111.893 14.4879 111.968 14.5013C113.315 14.7287 114.609 14.5388 115.809 13.8859C116.987 13.2437 118.064 12.5025 118.42 11.0682C118.567 10.4742 118.859 9.91765 119.065 9.337C119.221 8.89818 118.977 8.652 118.58 8.63862C117.263 8.59581 115.942 8.59848 114.622 8.58243C114.019 7.68068 113.101 7.46929 112.107 7.4452C110.846 7.4131 109.664 7.6459 108.748 8.61454C108.66 8.72157 108.165 8.50483 108.486 8.94099C108.555 8.81523 108.623 8.68678 108.692 8.56102V8.55833ZM115.675 16.6045C117.973 16.7918 119.561 15.815 120.568 13.744C120.948 12.96 121.548 12.2804 122.02 11.5365C122.25 11.1726 122.469 10.7793 122.577 10.3699C122.619 10.212 122.373 9.93101 122.196 9.77849C122.121 9.71428 121.837 9.78653 121.733 9.88554C121.545 10.0595 121.366 10.2816 121.278 10.5197C120.522 12.5051 119.154 13.942 117.415 15.114C116.794 15.5342 115.942 15.7696 115.712 16.65C115.093 16.6606 114.472 16.658 113.853 16.69C113.687 16.6981 113.524 16.8079 113.36 16.8693C113.561 16.9523 113.765 17.1075 113.966 17.1075C114.576 17.1075 115.233 17.1932 115.68 16.6045H115.675ZM90.0616 48.789C90.2839 48.6499 90.5464 48.5481 90.7257 48.3662C92.4293 46.6484 94.1567 45.0108 96.7895 44.8689C97.1646 44.8475 97.7324 44.4863 97.8422 44.1599C98.41 42.4687 99.583 41.3288 100.973 40.3335C101.059 40.2719 101.088 39.9829 101.024 39.9053C100.925 39.7903 100.719 39.7422 100.553 39.7234C100.381 39.702 100.18 39.7047 100.028 39.7769C98.884 40.3147 97.7966 40.9569 97.2931 42.1878C96.9288 43.0788 96.3449 43.5846 95.445 43.9405C93.3399 44.7753 91.6552 46.2256 90.1579 47.8926C89.9947 48.0718 89.9705 48.3769 89.8821 48.6231C88.6875 49.3162 88.0984 50.4828 87.5385 51.6628C87.4903 51.7645 87.6322 51.9571 87.6859 52.107C87.7662 52.0749 87.8841 52.0641 87.9215 52.0054C88.6099 50.9162 89.6438 50.0574 90.0563 48.7863L90.0616 48.789ZM80.4222 42.0032C81.0169 42.1102 81.1882 42.1503 81.3649 42.1664C81.4427 42.1744 81.5338 42.1423 81.6007 42.0995C81.6731 42.0514 81.7829 41.9549 81.7694 41.9068C81.7292 41.7543 81.6757 41.5189 81.5659 41.4813C80.1437 40.9702 78.6625 40.9355 77.5993 42.062C76.4261 43.309 75.0816 43.9003 73.4424 44.1626C72.047 44.3847 70.6248 44.6709 69.3259 45.2007C66.5055 46.3513 64.0308 48.1012 61.7622 50.1269C61.698 50.183 61.7863 50.4292 61.8346 50.5764C61.8479 50.6219 61.9952 50.6754 62.0328 50.6513C62.5523 50.3115 63.0879 49.9905 63.5701 49.6052C65.1101 48.3796 66.7626 47.3601 68.5223 46.4691C69.9204 45.7626 71.3641 45.3666 72.8961 45.5352C74.9209 45.7547 76.5707 45.3639 77.6314 43.432C78.3198 42.1771 79.5652 42.0433 80.4196 42.0032H80.4222ZM124.101 63.7065C123.935 63.5541 123.83 63.3854 123.688 63.3426C123.541 63.2998 123.284 63.3159 123.198 63.4122C122.108 64.6806 121.012 65.949 119.971 67.2574C119.159 68.2768 119.255 68.8281 120.265 69.7271C120.568 69.9974 120.887 70.0375 121.205 69.7753C123.123 68.1966 123.511 65.9061 124.101 63.7038V63.7065ZM114.496 28.5465C116.368 28.9292 118.211 29.8979 120.115 28.7927C120.238 28.7205 120.463 28.8463 120.635 28.8302C121.436 28.7553 121.851 28.4637 121.979 27.8161C122.218 26.6066 122.448 25.3945 122.614 24.1743C122.654 23.8773 122.48 23.5081 122.301 23.2405C122.151 23.0157 121.73 23.5536 121.661 24.185C121.591 24.8004 121.569 25.4186 121.489 26.0313C121.422 26.5451 121.055 26.7805 120.568 26.8047C120.217 26.8206 119.863 26.7672 119.51 26.7511C119.022 26.7297 118.645 26.8956 118.508 27.404C118.313 28.1398 117.721 28.3164 117.086 28.378C116.226 28.4637 115.361 28.4904 114.496 28.5439V28.5465ZM61.0471 73.4465C61.548 73.2378 61.9952 73.1387 62.3353 72.8926C63.1951 72.2664 64.0147 71.5895 64.8236 70.8991C64.9602 70.784 64.9548 70.5005 65.0164 70.2971C64.845 70.2623 64.6602 70.1687 64.5048 70.2007C63.2139 70.4791 61.9149 70.7412 60.6427 71.0891C60.0562 71.2497 59.7856 71.9988 60.0989 72.6357C60.2623 72.9676 60.7016 73.1655 61.0444 73.4465H61.0471ZM113.039 19.3151C112.712 19.4114 112.219 19.5505 111.729 19.7084C111.676 19.7245 111.649 19.8556 111.63 19.9358C111.617 20.0027 111.63 20.1392 111.638 20.1392C112.688 20.2409 113.738 20.3639 114.793 20.4094C115.128 20.4255 115.471 20.2436 115.811 20.1526C115.479 19.9199 115.176 19.5799 114.809 19.4756C114.311 19.3337 113.762 19.3686 113.036 19.3123L113.039 19.3151ZM121.489 17.5437C121.318 17.4314 121.114 17.2333 121.055 17.2707C119.866 18.0119 118.693 18.7799 117.523 19.5479C117.517 19.5505 117.56 19.6656 117.603 19.6977C117.67 19.7459 117.777 19.8181 117.828 19.794C118.939 19.2829 120.054 18.7799 121.141 18.218C121.326 18.1216 121.379 17.7712 121.489 17.5437ZM125.734 19.4247C125.691 18.986 125.713 18.8736 125.667 18.8146C125.571 18.6943 125.437 18.523 125.322 18.5256C125.207 18.5256 125 18.7023 124.99 18.8173C124.92 19.513 124.888 20.2142 124.856 20.9125C124.853 20.9901 124.923 21.0731 124.958 21.1533C125.086 21.0543 125.29 20.9768 125.333 20.8483C125.52 20.2756 125.662 19.687 125.734 19.422V19.4247Z" fill="#FA3812"/>
</g>
</svg>
